<svg xmlns="http://www.w3.org/2000/svg" width="189.839" height="129.86" viewBox="0 0 189.839 129.86">
  <g id="Groupe_2" data-name="Groupe 2" transform="translate(-35.527 -52.122)">
    <path id="Tracé_1" data-name="Tracé 1" d="M67.581,98.794V84.2H96.847V69.614H52.99V84.2h0v29.18H96.847V98.794Z" transform="translate(11.671 11.69)" fill="#02a9a2"/>
    <rect id="Rectangle_5" data-name="Rectangle 5" width="14.59" height="44.496" transform="translate(109.157 52.122) rotate(90)" fill="#fff"/>
    <path id="Tracé_2" data-name="Tracé 2" d="M149.256,69.628H105.487v14.59h29.266V98.808H105.487V113.4h43.856V69.628Z" transform="translate(46.756 11.699)" fill="#02a9a2"/>
    <g id="Groupe_1" data-name="Groupe 1" transform="translate(35.527 164.271)">
      <path id="Tracé_3" data-name="Tracé 3" d="M40.434,124.18a5.527,5.527,0,0,0-.194-1.7c-.172-.47-.44-.8-.856-.8-.682.025-.9.707-.9,1.722a3.817,3.817,0,0,0,.659,1.864c.39.661.9,1.345,1.416,2.077a26.229,26.229,0,0,1,1.683,2.641,5.773,5.773,0,0,1,.782,2.711,5.314,5.314,0,0,1-.757,3.043,3.275,3.275,0,0,1-2.9,1.32,3.291,3.291,0,0,1-3.175-1.557,7.171,7.171,0,0,1-.659-3.488l2.588-.237a6.274,6.274,0,0,0,.22,2c.17.567.464.944,1.026.944.781,0,1.073-.8,1.073-1.912a4.207,4.207,0,0,0-.682-1.909c-.22-.33-.44-.684-.684-1.039-.512-.707-1.074-1.508-1.66-2.381a9.7,9.7,0,0,1-1.295-2.688,4.538,4.538,0,0,1-.22-1.393,4.724,4.724,0,0,1,.782-2.736,3.235,3.235,0,0,1,2.661-1.32,3.1,3.1,0,0,1,3.026,1.533,6.554,6.554,0,0,1,.661,3.066Z" transform="translate(-35.527 -119.345)" fill="#fff"/>
      <path id="Tracé_4" data-name="Tracé 4" d="M40.648,136.792l2.709-17.334h3.222l2.709,17.334H46.727l-.489-3.537H43.7l-.487,3.537Zm4.466-11.7-.072-.449H44.9l-.073.449-.757,5.472h1.807Z" transform="translate(-32.104 -119.269)" fill="#fff"/>
      <path id="Tracé_5" data-name="Tracé 5" d="M46.778,119.458h2.636v14.977h3.492v2.357H46.778Z" transform="translate(-28.008 -119.269)" fill="#fff"/>
      <path id="Tracé_6" data-name="Tracé 6" d="M58.243,133.307a4.584,4.584,0,0,1-.439,1.885,3.283,3.283,0,0,1-1.051,1.275,3.206,3.206,0,0,1-2.025.589,3.289,3.289,0,0,1-2.052-.589,3.193,3.193,0,0,1-1.024-1.275,4.585,4.585,0,0,1-.44-1.885V123.1a4.579,4.579,0,0,1,.44-1.864,3.252,3.252,0,0,1,1.024-1.3,3.443,3.443,0,0,1,2.052-.591,3.169,3.169,0,0,1,3.076,1.887,4.578,4.578,0,0,1,.439,1.864ZM55.607,123.1a1.529,1.529,0,0,0-.344-1.084.761.761,0,0,0-.536-.19.811.811,0,0,0-.782.637,1.788,1.788,0,0,0-.1.637v10.212a1.473,1.473,0,0,0,.367,1.084.712.712,0,0,0,.514.189.763.763,0,0,0,.781-.636,1.6,1.6,0,0,0,.1-.637Z" transform="translate(-25.045 -119.344)" fill="#fff"/>
      <path id="Tracé_7" data-name="Tracé 7" d="M59.5,127.76l-.22-.8h-.147v9.833H56.712V119.458h2.344l2.563,9.034.22.8h.147v-9.835H64.4v17.334H62.059Z" transform="translate(-21.369 -119.269)" fill="#fff"/>
      <path id="Tracé_8" data-name="Tracé 8" d="M65.183,136.792V119.458h2.075c2.441,0,3.759.472,4.468,1.792.684,1.321.781,3.492.781,6.887s-.1,5.542-.781,6.863c-.709,1.321-2.027,1.792-4.468,1.792Zm2.638-2.548c.9,0,1.416-.093,1.685-.941a7.409,7.409,0,0,0,.244-1.842c.025-.824.025-1.934.025-3.348s0-2.523-.025-3.348a7.76,7.76,0,0,0-.244-1.84c-.269-.826-.782-.919-1.685-.919Z" transform="translate(-15.707 -119.269)" fill="#fff"/>
      <path id="Tracé_9" data-name="Tracé 9" d="M70.846,119.458h6.029v2.619H73.482v4.55h2.441v2.784H73.482v4.763h3.393v2.618H70.846Z" transform="translate(-11.922 -119.269)" fill="#fff"/>
      <path id="Tracé_10" data-name="Tracé 10" d="M78.03,119.458h2.636v14.977h3.492v2.357H78.03Z" transform="translate(-7.121 -119.269)" fill="#fff"/>
      <path id="Tracé_11" data-name="Tracé 11" d="M84.866,122.077l-1.343,3.065H82.3l.856-3.065H82.3v-2.619h2.564Z" transform="translate(-4.266 -119.269)" fill="#fff"/>
      <path id="Tracé_12" data-name="Tracé 12" d="M84.994,119.458h6.029v2.619H87.63v4.55h2.441v2.784H87.63v4.763h3.393v2.618H84.994Z" transform="translate(-2.467 -119.269)" fill="#fff"/>
      <path id="Tracé_13" data-name="Tracé 13" d="M94.074,136.792,92.39,125.9l-.1-.732h-.147v11.627H89.706V119.458h3.22l1.563,7.925.122.919h.05l.12-.919,1.563-7.925h3.223v17.334H97.125V125.165h-.147l-.1.732L95.2,136.792Z" transform="translate(0.682 -119.269)" fill="#fff"/>
      <path id="Tracé_14" data-name="Tracé 14" d="M97.005,119.458h2.638a4.6,4.6,0,0,1,3.173,1.084,5.308,5.308,0,0,1,1.465,4.1,5.251,5.251,0,0,1-1.465,4.081,4.638,4.638,0,0,1-3.173,1.131v6.934H97.005Zm2.638,7.808c.806,0,1.318-.142,1.61-.544a3.364,3.364,0,0,0,.367-1.98,3.823,3.823,0,0,0-.367-2.075,1.783,1.783,0,0,0-1.61-.614Z" transform="translate(5.56 -119.269)" fill="#fff"/>
      <path id="Tracé_15" data-name="Tracé 15" d="M102.375,119.458h2.636v14.977H108.5v2.357h-6.128Z" transform="translate(9.149 -119.269)" fill="#fff"/>
      <path id="Tracé_16" data-name="Tracé 16" d="M113.84,133.307a4.586,4.586,0,0,1-.439,1.885,3.284,3.284,0,0,1-1.051,1.275,3.206,3.206,0,0,1-2.025.589,3.289,3.289,0,0,1-2.052-.589,3.193,3.193,0,0,1-1.024-1.275,4.585,4.585,0,0,1-.44-1.885V123.1a4.579,4.579,0,0,1,.44-1.864,3.252,3.252,0,0,1,1.024-1.3,3.443,3.443,0,0,1,2.052-.591,3.169,3.169,0,0,1,3.076,1.887,4.579,4.579,0,0,1,.439,1.864ZM111.2,123.1a1.529,1.529,0,0,0-.344-1.084.761.761,0,0,0-.536-.19.811.811,0,0,0-.782.637,1.788,1.788,0,0,0-.1.637v10.212a1.473,1.473,0,0,0,.367,1.084.712.712,0,0,0,.514.189.763.763,0,0,0,.781-.636,1.6,1.6,0,0,0,.1-.637Z" transform="translate(12.112 -119.344)" fill="#fff"/>
      <path id="Tracé_17" data-name="Tracé 17" d="M112.309,119.458h2.638v17.334h-2.638Z" transform="translate(15.788 -119.269)" fill="#fff"/>
      <path id="Tracé_18" data-name="Tracé 18" d="M117.753,136.792V119.458h2.072c2.442,0,3.76.472,4.469,1.792.682,1.321.781,3.492.781,6.887s-.1,5.542-.781,6.863c-.709,1.321-2.027,1.792-4.469,1.792Zm2.636-2.548c.9,0,1.416-.093,1.683-.941a7.393,7.393,0,0,0,.245-1.842c.023-.824.023-1.934.023-3.348s0-2.523-.023-3.348a7.745,7.745,0,0,0-.245-1.84c-.267-.826-.781-.919-1.683-.919Z" transform="translate(19.427 -119.269)" fill="#fff"/>
      <path id="Tracé_19" data-name="Tracé 19" d="M123.414,119.458h6.031v2.619h-3.393v4.55h2.442v2.784h-2.442v4.763h3.393v2.618h-6.031Z" transform="translate(23.21 -119.269)" fill="#fff"/>
      <path id="Tracé_20" data-name="Tracé 20" d="M130.6,119.458h2.638v14.977h3.492v2.357H130.6Z" transform="translate(28.011 -119.269)" fill="#fff"/>
      <path id="Tracé_21" data-name="Tracé 21" d="M137.434,122.077l-1.343,3.065H134.87l.854-3.065h-.854v-2.619h2.564Z" transform="translate(30.866 -119.269)" fill="#fff"/>
      <path id="Tracé_22" data-name="Tracé 22" d="M137.562,119.458h6.031v2.619H140.2v4.55h2.441v2.784H140.2v4.763h3.393v2.618h-6.031Z" transform="translate(32.666 -119.269)" fill="#fff"/>
      <path id="Tracé_23" data-name="Tracé 23" d="M146.858,124.18a5.476,5.476,0,0,0-.2-1.7c-.172-.47-.439-.8-.854-.8-.684.025-.9.707-.9,1.722a3.817,3.817,0,0,0,.659,1.864c.392.661.9,1.345,1.416,2.077a26.246,26.246,0,0,1,1.685,2.641,5.79,5.79,0,0,1,.781,2.711,5.3,5.3,0,0,1-.757,3.043,3.938,3.938,0,0,1-6.078-.237,7.171,7.171,0,0,1-.659-3.488l2.588-.237a6.274,6.274,0,0,0,.22,2c.17.567.462.944,1.024.944.782,0,1.074-.8,1.074-1.912a4.208,4.208,0,0,0-.682-1.909c-.22-.33-.44-.684-.684-1.039-.512-.707-1.074-1.508-1.66-2.381a9.7,9.7,0,0,1-1.295-2.688,4.537,4.537,0,0,1-.22-1.393,4.735,4.735,0,0,1,.781-2.736,3.236,3.236,0,0,1,2.663-1.32,3.1,3.1,0,0,1,3.026,1.533,6.552,6.552,0,0,1,.659,3.066Z" transform="translate(35.599 -119.345)" fill="#fff"/>
      <path id="Tracé_24" data-name="Tracé 24" d="M147.511,119.458h2.638v17.334h-2.638Z" transform="translate(39.315 -119.269)" fill="#fff"/>
    </g>
    <path id="S" d="M225.19,52.149H123.063v87.537H50.117V52.122H35.527V154.276H137.653V66.738h73.122v87.538h14.59V52.149Z" transform="translate(0 0)" fill="#fff"/>
  </g>
</svg>
